<?xml version="1.0" standalone="no"?>
<!DOCTYPE svg PUBLIC "-//W3C//DTD SVG 20010904//EN"
 "http://www.w3.org/TR/2001/REC-SVG-20010904/DTD/svg10.dtd">
<svg version="1.0" xmlns="http://www.w3.org/2000/svg"
 width="512.000000pt" height="512.000000pt" viewBox="0 0 512.000000 512.000000"
 preserveAspectRatio="xMidYMid meet">

<g transform="translate(0.000000,512.000000) scale(0.100000,-0.100000)"
fill="#000000" stroke="none">
<path d="M3830 4170 c-33 -42 -80 -136 -80 -161 0 -29 -447 -140 -765 -190
-121 -19 -185 -23 -475 -25 -199 -1 -361 -7 -400 -13 -252 -45 -479 -159 -665
-334 l-80 -75 40 -42 c67 -70 67 -70 144 3 96 91 183 150 302 206 186 88 218
93 649 101 308 6 400 12 515 29 173 27 375 70 566 122 81 21 151 39 156 39 5
0 19 -33 31 -72 32 -109 30 -107 102 -73 34 16 63 32 66 36 2 4 -6 33 -17 65
-24 69 -29 175 -10 222 14 33 17 34 84 15 10 -3 40 -49 72 -114 31 -60 60
-109 67 -109 9 0 113 54 126 65 2 2 -15 38 -38 80 l-42 76 28 -7 c163 -38 388
-156 661 -347 l103 -72 0 -85 c0 -101 -54 -326 -95 -396 -40 -69 -76 -80 -330
-105 -251 -24 -330 -22 -395 11 -71 36 -143 94 -170 138 -14 23 -30 42 -36 42
-23 0 -134 -43 -134 -53 0 -23 66 -111 125 -165 58 -53 127 -95 199 -122 25
-9 27 -12 15 -30 -21 -28 -136 -192 -152 -215 -14 -18 -16 -16 -46 43 -41 80
-87 131 -153 168 -48 26 -62 29 -143 29 -78 0 -97 -4 -140 -27 -141 -74 -211
-224 -170 -364 20 -70 31 -89 157 -267 54 -76 98 -139 98 -142 0 -8 -132 -108
-193 -144 -59 -37 -266 -131 -286 -131 -4 0 -11 44 -14 98 -8 142 -51 259
-142 387 -51 72 -153 171 -164 159 -34 -40 -81 -102 -81 -109 0 -4 31 -40 69
-80 206 -221 225 -516 50 -765 l-42 -60 -168 0 -169 0 0 -75 0 -75 395 0 c424
0 435 -1 461 -51 21 -41 17 -74 -12 -108 l-26 -31 -209 0 -209 0 0 -80 0 -80
190 0 c217 0 274 9 333 54 143 109 123 333 -38 419 -35 19 -60 22 -197 25 -87
2 -158 5 -158 6 0 1 18 37 40 81 22 44 40 85 40 91 0 6 46 28 103 49 189 70
329 145 451 243 37 30 71 50 75 45 47 -68 75 -109 76 -111 4 -5 769 -62 836
-62 131 0 227 83 237 206 6 76 -17 133 -78 187 -59 53 -78 59 -409 124 l-243
48 -29 56 -28 57 64 101 c76 120 161 234 207 278 l33 32 208 21 c122 12 231
28 263 39 l54 18 0 -64 0 -63 75 0 74 0 3 168 c3 156 6 175 41 302 34 126 37
144 37 275 l0 140 -153 107 c-265 186 -464 297 -632 353 -62 21 -111 29 -215
36 -74 5 -163 15 -198 22 l-62 15 -30 -38z m-123 -1471 c57 -21 86 -64 195
-289 60 -123 110 -226 112 -227 1 -2 146 -32 322 -67 292 -59 321 -67 341 -91
13 -14 23 -37 23 -51 0 -34 -42 -74 -77 -74 -71 0 -730 52 -749 59 -19 8 -333
441 -367 508 -34 65 -13 163 42 202 54 38 110 49 158 30z"/>
<path d="M4410 3625 l0 -75 75 0 75 0 0 75 0 75 -75 0 -75 0 0 -75z"/>
<path d="M1206 3158 c-135 -209 -230 -465 -267 -721 -6 -45 -13 -83 -14 -85
-2 -2 -33 20 -70 48 -198 150 -413 193 -582 115 -107 -49 -209 -174 -247 -305
-23 -78 -31 -220 -17 -325 31 -237 121 -430 275 -592 209 -221 498 -341 895
-372 77 -6 435 -11 833 -11 l698 0 0 80 0 80 -288 0 c-318 0 -351 4 -471 63
-91 44 -223 176 -273 272 -65 125 -83 202 -83 355 0 74 2 151 5 170 l5 35 -70
16 c-38 9 -73 14 -77 10 -14 -13 -30 -207 -23 -285 15 -167 74 -337 161 -459
19 -26 34 -49 34 -52 0 -10 -75 33 -137 78 -240 177 -386 465 -412 809 -26
343 65 700 252 992 l51 79 -31 26 c-17 14 -45 34 -62 44 l-31 18 -54 -83z
m-617 -779 c76 -26 183 -96 268 -176 l61 -58 7 -70 c24 -256 95 -471 215 -651
69 -104 204 -236 309 -304 l84 -55 -89 -3 c-123 -5 -359 15 -476 38 -416 85
-695 325 -783 675 -74 290 -18 517 147 599 68 34 166 36 257 5z"/>
</g>
</svg>
